<svg id="Layer_1" enable-background="new 0 0 50 50" viewBox="0 0 50 50" xmlns="http://www.w3.org/2000/svg"><path d="m45 1h-40c-2.2 0-4 1.8-4 4v40c0 2.2 1.8 4 4 4h40c2.2 0 4-1.8 4-4v-40c0-2.2-1.8-4-4-4z" fill="#fff"/><g><path d="m20.3 10.5c-3.7 1.3-6.9 4.1-8.7 7.6-.6 1.2-1.1 2.5-1.3 3.9-.7 3.3-.2 6.9 1.3 9.9 1 2 2.4 3.7 4.2 5.1 1.6 1.3 3.5 2.3 5.6 2.8 2.6.7 5.3.7 7.8.1 2.3-.5 4.5-1.6 6.3-3.3 1.9-1.7 3.2-3.9 3.9-6.4.8-2.6.9-5.4.4-8.1-4.8 0-9.6 0-14.4 0v6h8.3c-.3 1.9-1.5 3.7-3.1 4.7-1 .7-2.2 1.1-3.4 1.3s-2.5.2-3.7 0-2.4-.8-3.4-1.5c-1.6-1.1-2.9-2.8-3.5-4.7-.7-1.9-.7-4 0-6 .5-1.3 1.2-2.6 2.2-3.6 1.2-1.3 2.8-2.2 4.6-2.5 1.5-.3 3-.3 4.5.2 1.2.4 2.4 1.1 3.3 1.9.9-.9 1.9-1.9 2.8-2.8.5-.5 1-1 1.5-1.5-1.4-1.3-3.1-2.4-4.9-3.1-3.3-1.1-7-1.1-10.3 0z" fill="#fff"/><g><path d="m20.3 10.5c3.3-1.1 7-1.1 10.3.1 1.8.7 3.5 1.7 4.9 3.1-.5.5-1 1-1.5 1.5-.9.9-1.9 1.9-2.8 2.8-.9-.9-2.1-1.6-3.3-1.9-1.4-.4-3-.5-4.5-.2-1.7.4-3.3 1.3-4.6 2.5-1 1-1.8 2.3-2.2 3.6-1.7-1.3-3.3-2.6-5-3.9 1.8-3.5 5-6.3 8.7-7.6z" fill="#ea4335"/></g><g><path d="m10.3 22c.3-1.3.7-2.6 1.3-3.9 1.7 1.3 3.3 2.6 5 3.9-.7 1.9-.7 4 0 6-1.7 1.3-3.3 2.6-5 3.9-1.5-3.1-2-6.6-1.3-9.9z" fill="#fbbc05"/></g><g><path d="m25.3 22.1h14.4c.5 2.7.4 5.5-.4 8.1-.7 2.4-2 4.6-3.9 6.4-1.6-1.3-3.2-2.5-4.9-3.8 1.6-1.1 2.7-2.8 3.1-4.7-2.8 0-5.6 0-8.3 0 0-2 0-4 0-6z" fill="#4285f4"/></g><g><path d="m11.6 31.9c1.7-1.3 3.3-2.6 5-3.9.6 1.9 1.9 3.6 3.5 4.7 1 .7 2.2 1.2 3.4 1.5 1.2.2 2.4.2 3.7 0 1.2-.2 2.4-.7 3.4-1.3 1.6 1.3 3.2 2.5 4.9 3.8-1.8 1.6-3.9 2.7-6.3 3.3-2.6.6-5.3.6-7.8-.1-2-.5-3.9-1.5-5.6-2.8-1.7-1.5-3.2-3.3-4.2-5.2z" fill="#34a853"/></g></g></svg>